<svg xmlns="http://www.w3.org/2000/svg" width="365" height="365" viewbox="0 0 365 365" style="shape-rendering:geometricPrecision;text-rendering:geometricPrecision;image-rendering:optimizeQuality;fill-rule:evenodd;clip-rule:evenodd">
  <path style="opacity:.999" fill="#4fc041" d="M356.5 181.5q-34.071-33.573-68-67-11.594-15.768-29-6.5L157 210.5 103.5 159q-20.563-8.652-29.5 11.5-1.743 9.085 3 17a1568 1568 0 0 0 70.5 70 11244 11244 0 0 0 89 89.5q-1.374.417-2 1.5-104.913 29.074-181.5-48-71.04-84.19-32-188Q76.174 1.76 200.5 8 305.22 23.254 346 120.5q11.033 29.475 10.5 61"/>
  <path style="opacity:1" fill="#fdfefd" d="M288.5 114.5q5.244 13.095-3.5 24A9514 9514 0 0 0 169.5 255q-10.322 7.282-22 2.5a1568 1568 0 0 1-70.5-70q-4.743-7.915-3-17 8.937-20.152 29.5-11.5l53.5 51.5L259.5 108q17.406-9.268 29 6.5"/>
  <path style="opacity:.998" fill="#3d9f30" d="M288.5 114.5q33.929 33.427 68 67-1.413 92.085-76 145.5-21.309 14.405-46 21.5.626-1.083 2-1.5a11244 11244 0 0 1-89-89.5q11.678 4.782 22-2.5A9514 9514 0 0 1 285 138.5q8.744-10.905 3.5-24"/>
</svg>