<svg xmlns="http://www.w3.org/2000/svg" width="5833" height="1586" viewBox="0 0 5833 1586" version="1.1"><path d="M 380.735 173.082 C 362.296 175.044, 340.960 182.129, 325.125 191.548 C 289.745 212.594, 266.104 245.675, 256.824 287.119 L 254.500 297.500 254.500 780.500 L 254.500 1263.500 256.811 1273.957 C 263.111 1302.463, 276.044 1326.160, 296.440 1346.566 C 316.749 1366.886, 339.711 1379.417, 368.040 1385.641 C 376.220 1387.438, 392.287 1387.500, 853 1387.500 C 1310.060 1387.500, 1329.847 1387.426, 1338 1385.679 C 1364.693 1379.963, 1387.765 1367.766, 1407.308 1349.041 C 1419.774 1337.097, 1428.296 1325.760, 1435.862 1311.057 C 1443.216 1296.767, 1447.538 1283.982, 1450.075 1269.006 C 1451.992 1257.693, 1452.020 1249.419, 1451.751 776 L 1451.478 294.500 1448.822 283.889 C 1434.614 227.102, 1393.932 187.372, 1337 174.685 L 1327.500 172.568 858 172.412 C 599.775 172.326, 385.006 172.627, 380.735 173.082 M 1680 779.964 L 1680 1388 1796 1388 L 1912 1388 1912 1157.500 L 1912 927 2042.750 926.982 C 2193.095 926.961, 2215.405 926.265, 2253 920.421 C 2439.579 891.418, 2558.470 765.660, 2571.995 583 C 2573.283 565.619, 2573.276 533.238, 2571.982 516 C 2561.801 380.399, 2494.073 275.056, 2380.490 218.153 C 2333.260 194.492, 2285.454 181.429, 2220 174.300 C 2205.943 172.769, 2180.093 172.580, 1942.250 172.271 L 1680 171.929 1680 779.964 M 4204.261 679.750 C 4204.597 1151.121, 4204.170 1116.388, 4210.049 1150.794 C 4218.153 1198.215, 4236.678 1242.480, 4263.174 1277.732 C 4272.603 1290.276, 4292.847 1311.124, 4305.499 1321.317 C 4341.149 1350.041, 4387.278 1370.768, 4437.232 1380.508 C 4472.249 1387.336, 4471.537 1387.298, 4572.250 1387.729 L 4664 1388.123 4664 1291.634 L 4664 1195.146 4595.250 1194.743 C 4520.824 1194.307, 4519.287 1194.206, 4499.476 1188.465 C 4461.994 1177.603, 4436.592 1151.463, 4425.536 1112.375 C 4419.206 1089.998, 4419.650 1105.843, 4419.282 889.250 L 4418.947 692 4541.474 692 L 4664 692 4664 602 L 4664 512 4541.500 512 L 4419 512 4419 380.500 L 4419 249 4311.477 249 L 4203.953 249 4204.261 679.750 M 415.968 297.032 C 413.400 299.600, 413.899 300.423, 422 307.004 C 461.583 339.158, 494.328 390.851, 520.440 462.409 C 523.871 471.809, 527.656 482.742, 528.853 486.704 C 532.121 497.520, 531.426 497.356, 554.733 492.808 C 698.074 464.839, 822.778 456.964, 930.500 469.078 C 1033.326 480.641, 1121.459 512.754, 1178.500 559.443 C 1186.605 566.077, 1189.728 567.238, 1192.025 564.470 C 1193.910 562.199, 1192.630 560.161, 1179.792 545 C 1107.366 459.470, 1006.596 394.606, 882 353.317 C 760.929 313.197, 624.760 295.207, 440.750 295.023 C 419.198 295.001, 417.893 295.107, 415.968 297.032 M 1912 549.500 L 1912 733.074 2047.750 732.718 C 2146.895 732.457, 2185.657 732.036, 2191.500 731.157 C 2207.545 728.741, 2220.782 725.709, 2233.500 721.537 C 2294.549 701.511, 2333.227 655.176, 2344.988 587.975 C 2347.782 572.013, 2348.752 543.163, 2347.058 526.452 C 2338.927 446.270, 2292.848 391.091, 2219 373.105 C 2190.936 366.270, 2199.686 366.622, 2048.750 366.257 L 1912 365.926 1912 549.500 M 2999.500 499.701 C 2953.739 502.821, 2904.730 512.937, 2864.213 527.623 C 2723.289 578.707, 2622.088 693.798, 2589.537 840 C 2567.370 939.563, 2575.924 1046.573, 2613.159 1135.500 C 2635.787 1189.542, 2666.864 1235.213, 2709.116 1276.517 C 2784.713 1350.418, 2884.245 1392.966, 3000.500 1401.078 C 3021.792 1402.564, 3071.021 1401.737, 3091 1399.558 C 3202.915 1387.351, 3297.380 1342.938, 3370 1268.384 C 3431.900 1204.835, 3472.156 1122.981, 3486.991 1030.500 C 3492.257 997.675, 3494.399 949.691, 3492.080 916.500 C 3485.577 823.438, 3456.054 741.222, 3404.480 672.558 C 3379.296 639.029, 3344.778 605.546, 3310.500 581.395 C 3243.825 534.419, 3164.270 506.811, 3076.050 500.033 C 3063.846 499.096, 3011.699 498.870, 2999.500 499.701 M 5140 500.056 C 5066.776 506.269, 4999.236 526.445, 4940.916 559.529 C 4926.370 567.781, 4899.019 586.409, 4885.500 597.271 C 4836.865 636.350, 4799.635 682.634, 4771.499 739 C 4736.698 808.717, 4720.897 886.219, 4724.096 971.500 C 4726.616 1038.662, 4742.148 1102.173, 4769.843 1158.565 C 4780.231 1179.717, 4785.065 1188.121, 4798.565 1208.500 C 4824.783 1248.079, 4858.132 1283.331, 4896.500 1312.024 C 4966.612 1364.456, 5050.667 1394.400, 5146.471 1401.074 C 5167.845 1402.563, 5217.210 1401.742, 5237 1399.569 C 5295.673 1393.124, 5348.723 1378.192, 5396.584 1354.649 C 5418.832 1343.705, 5426.961 1339.041, 5447.500 1325.435 C 5510.541 1283.676, 5561.783 1224.496, 5594.456 1155.714 C 5616.746 1108.790, 5630.241 1060.270, 5636.708 1003.800 C 5638.085 991.778, 5638.458 980.252, 5638.450 950 C 5638.438 908.889, 5637.726 899.046, 5632.425 866.736 C 5609.561 727.388, 5526.356 612.086, 5403.500 549.502 C 5382.155 538.629, 5366.628 532.182, 5342 523.968 C 5308.548 512.811, 5275.668 505.623, 5238.888 501.428 C 5222.136 499.517, 5157.007 498.614, 5140 500.056 M 3881 513.039 C 3804.029 516.416, 3737.553 539.314, 3687.500 579.692 C 3674.669 590.042, 3654.520 610.773, 3645.183 623.230 C 3618.882 658.318, 3600.343 702.205, 3592.478 748 C 3587.263 778.361, 3587.618 755.445, 3587.279 1083.750 L 3586.965 1388 3693.964 1388 L 3800.963 1388 3801.278 1101.750 L 3801.592 815.500 3803.737 804.488 C 3815.323 745.010, 3849.960 713.240, 3910 707.019 C 3915.462 706.453, 3957.436 706.027, 4008.750 706.017 L 4098 706 4098 609 L 4098 512 3997.750 512.157 C 3942.613 512.244, 3890.075 512.641, 3881 513.039 M 847 538.590 C 763.701 542.463, 694.522 552.864, 624 572.117 C 602.544 577.975, 564.285 590.340, 561.645 592.270 C 559.911 593.538, 559.962 594.390, 562.882 613.046 C 573.634 681.728, 578.718 757.169, 577.217 825.748 C 576.729 848.035, 577.042 850, 581.082 850 C 582.093 850, 595.296 846.182, 610.423 841.515 C 770.645 792.083, 908.939 763.379, 1033 753.804 C 1055.036 752.103, 1127.280 752.113, 1144.500 753.820 C 1196.287 758.951, 1231.809 767.649, 1263.476 782.951 C 1282.356 792.074, 1302.593 806.980, 1314.478 820.518 C 1317.608 824.083, 1320.806 827, 1321.585 827 C 1322.363 827, 1323.874 826.126, 1324.943 825.057 C 1326.866 823.134, 1326.852 822.989, 1323.497 810.307 C 1307.419 749.543, 1279.171 699.959, 1236.891 658.288 C 1210.696 632.471, 1183.918 613.369, 1149 595.591 C 1087.562 564.311, 1016.852 546.407, 929.500 540.014 C 914.824 538.939, 859.878 537.991, 847 538.590 M 3011.500 684.603 C 3009.850 684.829, 3003.458 685.705, 2997.296 686.551 C 2958.402 691.885, 2919.778 707.970, 2888.500 731.858 C 2885.200 734.378, 2877.822 740.954, 2872.104 746.470 C 2830.244 786.856, 2805.863 838.171, 2796.308 906 C 2793.785 923.907, 2793.787 977.116, 2796.311 995 C 2805.744 1061.838, 2830.328 1113.936, 2871.138 1153.572 C 2905.777 1187.214, 2947.938 1207.130, 3001.500 1215.152 C 3013.621 1216.967, 3058.360 1216.969, 3070.500 1215.155 C 3122.460 1207.389, 3164.512 1187.455, 3199.226 1154.136 C 3231.597 1123.065, 3255.313 1080.200, 3267.526 1030.689 C 3283.277 966.835, 3278.988 891.745, 3256.292 834 C 3224.138 752.190, 3159.834 699.709, 3075.500 686.447 C 3065.056 684.805, 3019.594 683.495, 3011.500 684.603 M 5157.500 684.603 C 5155.850 684.829, 5149.458 685.705, 5143.296 686.551 C 5101.829 692.238, 5060.429 710.291, 5029.500 736.173 C 4981.435 776.394, 4952.257 833.570, 4942.326 907 C 4939.726 926.220, 4939.725 974.763, 4942.323 994 C 4951.191 1059.653, 4974.825 1110.965, 5014.434 1150.563 C 5050.573 1186.692, 5092.117 1206.857, 5147.500 1215.152 C 5159.676 1216.976, 5204.383 1216.970, 5216.500 1215.143 C 5272.737 1206.665, 5316.527 1184.705, 5352.267 1147.056 C 5390.302 1106.990, 5413.159 1054.378, 5421.150 988.500 C 5423.141 972.085, 5422.857 925.006, 5420.667 908.619 C 5411.776 842.068, 5389.266 792.030, 5350.048 751.636 C 5321.168 721.891, 5286.590 701.985, 5245.643 691.532 C 5223.933 685.990, 5213.376 684.748, 5185.500 684.455 C 5171.750 684.311, 5159.150 684.377, 5157.500 684.603 M 1098.500 822.618 C 963.130 828.875, 793.487 867.082, 626.937 928.824 C 587.559 943.422, 574.024 949.027, 572.581 951.333 C 571.835 952.525, 570.931 956.425, 570.571 960 C 569.392 971.722, 562.954 1011.097, 558.881 1031.500 C 541.377 1119.182, 514.739 1191.706, 479.605 1247.333 C 475.147 1254.391, 470.847 1261.211, 470.048 1262.488 C 468.839 1264.422, 468.818 1265.075, 469.921 1266.405 C 470.649 1267.282, 472.220 1268, 473.413 1268 C 474.605 1268, 490.637 1261.212, 509.040 1252.915 C 772.842 1133.986, 961.219 1065.871, 1063.500 1052.429 C 1081.786 1050.025, 1108.054 1050.006, 1118.408 1052.388 C 1133.090 1055.765, 1140.754 1060.488, 1145.490 1069.077 C 1148.194 1073.979, 1148.479 1075.364, 1148.463 1083.500 C 1148.445 1092.876, 1146.751 1099.721, 1141.530 1111.528 C 1132.900 1131.042, 1111.165 1160.416, 1083.663 1189.735 C 1078.898 1194.815, 1075 1199.799, 1075 1200.811 C 1075 1203.564, 1079.211 1207, 1082.584 1207 C 1084.939 1207, 1089.598 1203.619, 1105.520 1190.358 C 1193.278 1117.263, 1254.488 1053.187, 1287.628 999.726 C 1307.285 968.014, 1318.310 934.766, 1316.550 912.500 C 1312.604 862.557, 1266.121 833.211, 1177.051 824.430 C 1162.719 823.018, 1114.119 821.896, 1098.500 822.618" stroke="none" fill="#00a1fc" fill-rule="evenodd"/></svg>