<svg xmlns="http://www.w3.org/2000/svg" width="800" height="161" viewBox="0 0 800 161" version="1.1"><path d="" stroke="none" fill="#ec6424" fill-rule="evenodd"/><path d="M 2 12.849 C 2 13.540, 3.734 14, 6.340 14 C 11.783 14, 21.863 18.867, 25.620 23.308 C 29.522 27.921, 32.741 35.539, 33.940 43 C 34.558 46.845, 34.988 68.597, 34.992 96.250 C 35 141.661, 35.057 143.057, 37 145 C 38.802 146.802, 40.333 147, 52.500 147 L 66 147 66 89.696 L 66 32.393 63.353 27.081 C 60.371 21.097, 54.872 16.960, 46.500 14.403 C 40.003 12.418, 2 11.091, 2 12.849 M 98.328 13.027 C 86.679 14.253, 77.532 19.505, 73.157 27.479 C 71.677 30.177, 71.470 36.738, 71.219 88.750 L 70.938 147 84.035 147 C 91.238 147, 97.955 146.559, 98.961 146.021 C 102.722 144.008, 103 140.186, 103 90.456 C 103 44.954, 103.114 41.849, 105.005 35.855 C 108.940 23.379, 117.914 15.484, 129.522 14.286 C 132.535 13.975, 135 13.333, 135 12.860 C 135 11.834, 108.515 11.954, 98.328 13.027 M -0 30.291 L -0 44.837 12.398 45.168 C 25.545 45.520, 27.801 46.325, 30.140 51.500 C 32.039 55.701, 30.157 41.387, 28.092 35.921 C 24.161 25.516, 15.078 18.080, 4.250 16.403 L 0 15.744 -0 30.291 M 127.404 17.805 C 124.601 18.786, 120.448 21.061, 118.175 22.861 C 112.513 27.346, 107.188 38.261, 106.400 47 L 105.814 53.500 107.826 50.359 C 108.932 48.632, 110.437 46.832, 111.169 46.359 C 111.901 45.887, 118.125 45.275, 125 45 L 137.500 44.500 137.500 30.500 L 137.500 16.500 135 16.261 C 133.625 16.129, 130.207 16.824, 127.404 17.805 M 185 79.423 L 185 135 194.777 135 C 209.406 135, 209 135.541, 209 116.059 L 209 100.232 222.250 99.748 C 237.329 99.197, 241.924 97.925, 249.500 92.202 C 253.100 89.482, 255.452 86.559, 257.900 81.760 C 260.916 75.847, 261.354 73.974, 261.779 65.151 C 262.178 56.852, 261.896 54.015, 260.071 48.007 C 258.228 41.939, 256.989 39.898, 252.192 35.028 C 242.751 25.443, 239.625 24.646, 209.750 24.208 L 185 23.846 185 79.423 M 355 33.500 L 355 43 350.539 43 C 346.224 43, 346.045 43.123, 345.100 46.750 C 344.562 48.813, 343.820 52.188, 343.450 54.250 L 342.777 58 348.889 58 L 355 58 355 88.321 L 355 118.641 357.750 124.066 C 362.546 133.527, 374.335 138.161, 385.750 135.073 L 390 133.923 389.997 126.211 L 389.994 118.500 385.498 118.474 C 382.194 118.454, 380.406 117.851, 378.751 116.197 C 376.539 113.986, 376.495 113.465, 376.205 85.974 L 375.911 58 383.436 58 C 390.830 58, 390.973 57.952, 391.578 55.250 C 391.917 53.738, 392.598 50.925, 393.091 49 C 394.652 42.912, 394.771 43, 385 43 L 376 43 376 35.689 C 376 25.234, 374.676 24, 363.461 24 L 355 24 355 33.500 M 409 33.500 L 409 43 404.519 43 C 400.690 43, 399.964 43.327, 399.527 45.250 C 398.083 51.607, 397.046 56.580, 397.024 57.250 C 397.011 57.663, 399.676 58, 402.947 58 L 408.895 58 409.197 89.250 L 409.500 120.500 412.277 125.223 C 414.077 128.286, 416.714 130.923, 419.777 132.723 C 423.877 135.134, 425.555 135.500, 432.500 135.500 C 444.056 135.500, 444 135.545, 444 126.205 L 444 118.346 441.250 118.747 C 436.829 119.391, 433.060 117.387, 431.452 113.538 C 430.309 110.804, 430 104.529, 430 84.074 L 430 58.084 437.677 57.792 L 445.355 57.500 446.635 52 C 448.835 42.550, 449.216 43, 439 43 L 430 43 430 35.500 C 430 25.057, 428.851 24, 417.500 24 L 409 24 409 33.500 M 673 36.567 C 673 48.064, 673.149 49.091, 674.750 48.625 C 675.712 48.345, 680.438 47.353, 685.250 46.421 L 694 44.726 694 35.920 C 694 24.720, 693.231 24, 681.277 24 L 673 24 673 36.567 M 779 79.500 L 779 135 789.500 135 L 800 135 800 81.155 C 800 30.261, 799.900 27.219, 798.171 25.655 C 796.766 24.383, 794.337 24, 787.671 24 L 779 24 779 79.500 M 209 62 L 209 81 217.352 81 C 227.215 81, 231.262 78.987, 234.465 72.487 C 237.242 66.849, 237.087 56.012, 234.147 50.271 C 231.151 44.423, 227.903 43, 217.550 43 L 209 43 209 62 M 295.746 51.022 C 277.927 55.524, 268.056 70.753, 268.015 93.803 C 267.964 122.250, 281.603 137.078, 306.647 135.804 C 317.661 135.244, 323.489 132.528, 330.771 124.560 C 341.997 112.277, 344.987 90.403, 337.994 71.714 C 333.278 59.108, 321.704 51.124, 307.149 50.435 C 302.942 50.236, 297.811 50.500, 295.746 51.022 M 475.332 51.851 C 465.636 55.202, 459.535 61.788, 454.861 73.951 C 452.275 80.680, 451.189 97.992, 452.864 105.800 C 455.561 118.376, 464.094 129.007, 474.703 133.007 C 485.180 136.958, 502.304 136.663, 513.094 132.346 L 517 130.783 517 122.784 C 517 115.562, 516.830 114.855, 515.250 115.499 C 507.591 118.618, 504.413 119.176, 496.154 118.849 C 488.432 118.543, 486.738 118.128, 482.509 115.500 C 477.468 112.368, 474.386 107.756, 473.822 102.500 L 473.500 99.500 497.750 99.232 L 522 98.964 521.980 94.232 C 521.949 86.724, 520.213 76.645, 517.876 70.398 C 514.790 62.149, 506.371 53.731, 499.068 51.591 C 491.957 49.508, 481.791 49.619, 475.332 51.851 M 562.493 52.351 C 559.739 53.634, 556.026 56.345, 554.243 58.376 L 551 62.070 551 58.690 C 551 53.119, 548.656 51.866, 538.874 52.208 L 530.500 52.500 530.500 93.500 L 530.500 134.500 541.209 134.783 L 551.918 135.067 552.209 103.955 L 552.500 72.844 556.362 69.305 C 559.922 66.045, 560.609 65.804, 565.122 66.238 C 570.871 66.790, 573.603 68.912, 574.989 73.900 C 575.548 75.914, 575.991 90.169, 575.994 106.250 L 576 135 586.570 135 L 597.140 135 596.820 100.750 C 596.510 67.592, 596.429 66.368, 594.279 62.347 C 588.385 51.324, 574.246 46.878, 562.493 52.351 M 632.286 51.392 C 621.770 54.824, 614.691 61.162, 609.873 71.457 C 598.617 95.511, 607.794 126.536, 628.280 133.680 C 635.280 136.121, 652.802 136.167, 658.250 133.759 L 662 132.102 662 123.944 C 662 116.569, 661.832 115.855, 660.250 116.501 C 652.250 119.772, 643.225 119.538, 637.353 115.909 C 629.728 111.197, 625.847 94.917, 629.419 82.629 C 633.271 69.379, 645.577 63.447, 657.750 68.973 L 662 70.902 662 62.895 L 662 54.888 657.250 52.767 C 651.288 50.106, 638.401 49.397, 632.286 51.392 M 688 51.005 C 686.075 51.448, 681.913 52.334, 678.750 52.976 L 673 54.142 673 94.571 L 673 135 683.500 135 L 694 135 694 92.500 C 694 59.113, 693.732 50.022, 692.750 50.100 C 692.063 50.156, 689.925 50.563, 688 51.005 M 721.711 51.569 C 712.084 53.901, 712 53.996, 712 62.479 L 712 69.888 716.637 67.837 C 726.302 63.561, 738.691 64.537, 744.158 70.004 C 746.546 72.392, 747 73.670, 747 78.003 C 747 83.127, 746.983 83.155, 744.206 82.545 C 742.670 82.208, 737.480 82.379, 732.673 82.925 C 711.256 85.358, 699.365 97.430, 701.392 114.680 C 702.981 128.200, 711.724 136, 725.290 136 C 733.545 136, 739.806 133.795, 744.898 129.094 L 749 125.307 749 128.499 C 749 133.603, 751.445 135, 760.379 135 L 768.101 135 767.801 102.250 C 767.513 70.882, 767.409 69.331, 765.338 65.500 C 762.835 60.871, 757.807 55.873, 753.500 53.734 C 745.945 49.980, 732.147 49.041, 721.711 51.569 M 483.643 66.053 C 478.199 67.637, 475.083 72.623, 473.519 82.250 L 472.909 86 487.085 86 L 501.260 86 500.765 81.611 C 499.511 70.483, 491.968 63.630, 483.643 66.053 M 297.147 68.530 C 292.490 72.448, 290.636 79.423, 290.640 93 C 290.644 106.060, 291.916 111.755, 295.799 116.101 C 299.348 120.072, 305.776 121.114, 310.625 118.503 C 316.276 115.460, 318.353 109.610, 318.827 95.404 C 319.302 81.190, 317.605 73.451, 313.006 68.852 C 309.081 64.927, 301.609 64.775, 297.147 68.530 M 729.316 97.943 C 722.988 100.816, 720.371 107.585, 722.957 114.387 C 724.867 119.410, 733.965 121.621, 739.961 118.520 C 745.508 115.651, 747 112.546, 747 103.865 L 747 96 740.250 96.022 C 735.794 96.036, 732.078 96.690, 729.316 97.943" stroke="none" fill="#f46424" fill-rule="evenodd"/></svg>