<svg xmlns="http://www.w3.org/2000/svg" width="365" height="365" viewbox="0 0 365 365" style="shape-rendering:geometricPrecision;text-rendering:geometricPrecision;image-rendering:optimizeQuality;fill-rule:evenodd;clip-rule:evenodd">
  <path style="opacity:.998" fill="#fe5953" d="M356.5 184.5a9659 9659 0 0 1-83-82.5 2.43 2.43 0 0 0-2-.5q-10.077-16.773-28-8.5a2628 2628 0 0 0-61.5 60.5L123.5 95q-21.37-12.78-32.5 9.5-2.193 10.396 4 19l58.5 58.5A2628 2628 0 0 0 93 243.5q-8.21 17.96 8.5 28a2.43 2.43 0 0 0 .5 2 9650 9650 0 0 1 82.5 83q-99.301-.798-152.5-84-41.183-72.638-14-152Q58.793 23.239 163.5 8 266.382 1.08 327 83.5q30.328 45.735 29.5 101"/>
  <path style="opacity:1" fill="#fefcfc" d="M271.5 101.5q5.113 12.459-3.5 23L210.5 182l58.5 58.5q12.226 21.815-10.5 32.5-7.902 1.602-15-2a2628 2628 0 0 1-61.5-60.5L123.5 269q-10.428 7.242-22 2.5-16.71-10.04-8.5-28a2628 2628 0 0 1 60.5-61.5L95 123.5q-6.193-8.604-4-19 11.13-22.28 32.5-9.5l58.5 58.5A2628 2628 0 0 1 243.5 93q17.923-8.273 28 8.5"/>
  <path style="opacity:.999" fill="#da3a3c" d="M271.5 101.5a2.43 2.43 0 0 1 2 .5 9659 9659 0 0 0 83 82.5q-5.376 110.51-105 158.5-32.106 13.651-67 13.5a9650 9650 0 0 0-82.5-83 2.43 2.43 0 0 1-.5-2q11.572 4.742 22-2.5l58.5-58.5a2628 2628 0 0 0 61.5 60.5q7.098 3.602 15 2 22.726-10.685 10.5-32.5L210.5 182l57.5-57.5q8.613-10.541 3.5-23"/>
</svg>