<svg xmlns="http://www.w3.org/2000/svg" width="1244" height="548" viewBox="0 0 1244 548" version="1.1"><path d="M 290.500 44.369 L 232.500 58.516 232.238 95.258 L 231.975 132 209.988 132 L 188 132 188 183.500 L 188 235 209.946 235 L 231.892 235 232.262 307.250 C 232.616 376.427, 232.722 379.894, 234.742 388.768 C 237.541 401.067, 239.538 406.996, 243.914 416 C 261.138 451.441, 293.663 472.437, 338.479 477.044 C 357.147 478.963, 389.447 476.738, 409.050 472.183 L 416.500 470.452 416.760 422.204 L 417.019 373.957 414.260 374.668 C 412.742 375.059, 402.500 375.407, 391.500 375.440 C 372.488 375.497, 371.239 375.382, 366.212 373.111 C 360.193 370.390, 354.057 364.011, 351.994 358.326 C 350.883 355.266, 350.534 342.544, 350.252 294.750 L 349.898 235 383.449 235 L 417 235 417 183.500 L 417 132 383.500 132 L 350 132 350 81 C 350 52.950, 349.663 30.050, 349.250 30.111 C 348.837 30.172, 322.400 36.588, 290.500 44.369 M 612 133.041 C 494.536 144.326, 420.412 248.127, 453.143 355.500 C 478.433 438.463, 568.074 489.565, 663.500 475.418 C 734.552 464.886, 791.332 418.198, 810.954 354.175 C 816.472 336.170, 817.484 328.545, 817.484 305 C 817.484 281.455, 816.472 273.830, 810.954 255.825 C 793.270 198.126, 745.426 154.243, 683 138.465 C 662.457 133.273, 633.005 131.023, 612 133.041 M 1009.564 133.077 C 925.422 141.109, 859.732 198.298, 845.891 275.569 C 842.893 292.304, 842.893 317.696, 845.891 334.431 C 855.534 388.265, 890.376 433.328, 941.448 458.020 C 1003.374 487.961, 1082.410 483.436, 1138.303 446.750 C 1177.625 420.941, 1203.322 383.604, 1213.149 338 C 1215.121 328.849, 1215.412 324.610, 1215.412 305 C 1215.412 285.390, 1215.121 281.151, 1213.149 272 C 1198.858 205.677, 1149.345 155.630, 1081.143 138.568 C 1059.651 133.192, 1031.212 131.010, 1009.564 133.077 M 621.477 235.922 C 605.299 238.513, 593.502 244.413, 582.429 255.453 C 573.432 264.422, 569.479 270.684, 565.355 282.500 C 562.788 289.853, 562.564 291.673, 562.584 305 C 562.605 317.995, 562.883 320.331, 565.268 327.500 C 571.423 346.003, 583.164 359.372, 600.500 367.617 C 611.264 372.737, 618.863 374.366, 632 374.370 C 652.638 374.377, 667.627 368.372, 681.557 354.515 C 690.463 345.654, 695.219 337.669, 699.134 325 C 701.010 318.929, 701.452 315.213, 701.457 305.500 C 701.463 291.301, 699.881 284.359, 693.829 272.012 C 685.825 255.687, 668.871 242.254, 650.338 237.553 C 642.834 235.651, 628.302 234.829, 621.477 235.922 M 1018.531 236.113 C 984.252 241.106, 960 269.649, 960 305 C 960 332.836, 974.280 356.202, 998.195 367.496 C 1009.314 372.748, 1016.800 374.366, 1030 374.370 C 1050.650 374.377, 1065.643 368.372, 1079.584 354.512 C 1088.510 345.638, 1094.478 335.255, 1097.697 323 C 1100.001 314.228, 1100.005 295.798, 1097.705 287 C 1090.749 260.397, 1069.832 241.294, 1042.426 236.515 C 1032.969 234.866, 1027.703 234.777, 1018.531 236.113 M 92.539 349.054 C 75.994 351.627, 64.725 357.210, 53.382 368.453 C 41.277 380.451, 35.551 392.955, 34.354 410 C 33.009 429.145, 39.581 446.868, 52.896 460 C 57.278 464.323, 63.148 468.902, 66.750 470.809 C 70.188 472.628, 73 474.337, 73 474.607 C 73 474.876, 65.575 491.280, 56.500 511.060 C 47.425 530.840, 40 547.244, 40 547.512 C 40 547.780, 57.438 547.983, 78.750 547.962 L 117.500 547.925 142.290 495.172 C 155.924 466.159, 168.255 438.838, 169.693 434.460 C 171.884 427.790, 172.314 424.636, 172.346 415 C 172.414 394.923, 167.217 382.096, 153.448 368.347 C 140.778 355.697, 126.809 349.763, 107 348.618 C 102.325 348.348, 95.818 348.544, 92.539 349.054" stroke="none" fill="#01babd" fill-rule="evenodd"/></svg>